<svg width="100" height="100" viewBox="0 0 100 100" fill="none" xmlns="http://www.w3.org/2000/svg">
<g clip-path="url(#clip0_13_7)">
<path d="M69.0733 32.6385C71.6142 32.6385 73.674 30.5787 73.674 28.0378C73.674 25.4969 71.6142 23.4371 69.0733 23.4371C66.5324 23.4371 64.4726 25.4969 64.4726 28.0378C64.4726 30.5787 66.5324 32.6385 69.0733 32.6385Z" fill="#FF5A60"/>
<path d="M39.6287 86.1909C33.8712 86.1909 27.3776 85.6257 20.0033 84.3244L15.1265 83.4568L55.1265 21.6888C58.6099 16.2731 64.5514 13.0263 70.9925 13H71.0582C81.469 13 89.9606 21.4522 90 31.8761C90 33.6375 89.7765 35.3858 89.3033 37.0684C89.2113 37.3707 89.1193 37.6862 89.0141 37.9885C88.9221 38.2514 88.8433 38.5012 88.7381 38.7509C88.6724 38.9086 88.6066 39.0795 88.5409 39.2504L82.4943 36.6609L81.5478 38.8955C80.9826 40.3152 81.3901 41.8794 82.2182 44.7187C83.5721 49.372 85.4387 55.7473 81.4032 65.5403C79.7995 69.4443 71.0582 86.1778 39.6287 86.1778V86.1909ZM26.0894 78.6326C64.604 83.9432 73.8318 66.697 75.3303 63.0427C78.4851 55.3792 77.118 50.6865 75.9086 46.559C74.9754 43.3648 74.0158 40.0654 75.4749 36.398L76.579 33.8216L82.6126 36.4111C82.6783 36.2271 82.744 36.0693 82.7966 35.8985C82.8623 35.7013 82.928 35.5041 82.9806 35.3069C83.283 34.2028 83.4407 33.0723 83.4407 31.9155C83.4407 28.6162 82.1262 25.514 79.7864 23.1873C77.4466 20.8738 74.3575 19.5988 71.0713 19.5988H71.0187C66.8124 19.6119 62.9346 21.7414 60.6605 25.2774L26.0762 78.6326H26.0894Z" fill="#FF5A60"/>
<path d="M61.4098 40.8147C60.6737 39.7105 59.8324 38.6852 58.886 37.7519C57.5846 36.4768 56.1387 35.3989 54.5744 34.5314C52.6684 33.4929 50.5784 32.7831 48.3437 32.4282C47.187 32.2442 46.1617 32.1522 45.2415 32.1653C40.7986 32.1784 36.4607 33.7427 32.9642 36.6214L32.7276 36.8317C25.235 43.2859 20.4896 51.0151 14.4693 60.8081L10 68.0378L14.9293 68.7739C17.3874 69.142 18.9123 69.3128 20.8446 69.5232C22.3957 69.6941 24.2622 69.8912 27.1541 70.2593H27.1804C30.4798 70.6536 33.4505 70.8114 36.119 70.8114C44.6895 70.8114 49.9737 69.1551 52.1689 68.2875C61.4098 64.5938 64.6829 57.1669 64.6697 51.4358C64.6566 47.6369 63.5261 43.9563 61.4229 40.7884L61.4098 40.8147ZM49.724 62.2014C47.8442 62.9507 40.7328 65.2642 27.9691 63.7657C25.0115 63.3976 23.1186 63.1873 21.5412 63.0164C21.3046 62.9901 21.0943 62.9639 20.8709 62.9507C26.3917 53.9727 30.5981 47.3608 37.0128 41.84L37.1968 41.6822C39.4972 39.7894 42.2839 38.7903 45.2547 38.7772C45.8725 38.7772 46.5034 38.8298 47.3053 38.9612C48.7907 39.1978 50.1709 39.6579 51.4065 40.3414C52.4318 40.9067 53.3914 41.6165 54.259 42.4709C54.8768 43.0887 55.442 43.7591 55.9284 44.4952C57.3217 46.5853 58.0578 49.0171 58.071 51.5146C58.071 53.2498 57.4926 59.1255 49.7108 62.2277L49.724 62.2014Z" fill="#FF5A60"/>
</g>
<defs>
<clipPath id="clip0_13_7">
<rect width="80" height="73.1909" fill="white" transform="translate(10 13)"/>
</clipPath>
</defs>
</svg>
